# xmcd
#
# Track frame offsets: 
#        150
#        15219
#        29003
#        46400
#        61043
#        74813
#        91569
#        109189
#        122318
#        141590
#        156693
#        171676
#        187565
#        204310
#        223773
#        238078
#
# Disc length: 3485 seconds
#
# Revision: 0
# Processed by: cddbd v1.5.2PL0 Copyright (c) Steve Scherf et al.
# Submitted via: ExactAudioCopyFreeDBPlugin 1.0
#
DISCID=e40d9b10
DTITLE=Tom Astor - Lieder für Generationen [CD 2)
DYEAR=2019
DGENRE=Country
TTITLE0=Heute denk ich nicht so viel an morgen
TTITLE1=Damit es so bleibt
TTITLE2=Brave Rebellen
TTITLE3=Geh Deinen Weg
TTITLE4=14 Tage, 14 Nächte
TTITLE5=Wir woll'n leben, solange wir leben
TTITLE6=Ich habe mir geschworen
TTITLE7=Alles ist möglich - alles ist drin
TTITLE8=Wär' ich ein Buch (If You Could Read My Mind)
TTITLE9=Brandy
TTITLE10=Geisterreiter (Gost) Riders In The Sky)
TTITLE11=Hallo, guten Morgen Deutschland (Live)
TTITLE12=Johnny Cash Hit Medley (Live)
TTITLE13=Lucille (Live)
TTITLE14=Take Me Home Country Roads (Live)
TTITLE15=Junger Adler (Live)
EXTD=
EXTT0=
EXTT1=
EXTT2=
EXTT3=
EXTT4=
EXTT5=
EXTT6=
EXTT7=
EXTT8=
EXTT9=
EXTT10=
EXTT11=
EXTT12=
EXTT13=
EXTT14=
EXTT15=
PLAYORDER=
